<?xml version="1.0" encoding="UTF-8"?>
<svg id="Ebene_1" xmlns="http://www.w3.org/2000/svg" viewBox="0 0 1036 708.13">
  <defs>
    <style>
      .cls-1 {
        fill: #fe019a;
      }
    </style>
  </defs>
  <path d="M170.28,177.51c.14-19.84,4.25-38.63,11.59-55.73,11-25.65,29.28-47.49,52.21-62.88,11.46-7.7,24.08-13.78,37.53-17.95,13.45-4.16,27.74-6.41,42.6-6.41.33,0,.66,0,.99,0,17.11.12,33.42,3.19,48.56,8.73,22.7,8.31,42.74,22.19,58.45,39.98,15.71,17.8,27.06,39.46,32.46,63.37l8.49,37.61,22.41-31.38c8.39-11.76,19.48-21.47,32.31-28.22,12.84-6.75,27.39-10.57,42.94-10.57,1.8,0,3.62.05,5.46.16,12.18.7,23.65,3.76,34.08,8.73,15.64,7.45,28.9,19.24,38.22,33.72,9.32,14.49,14.68,31.57,14.68,49.82,0,.35,0,.7,0,1.05h0c-.12,10.22-1.85,19.93-4.97,28.99l-13.94,40.41,38.1-19.39c14.93-7.59,31.8-11.87,49.75-11.88.25,0,.5,0,.76,0,8.13.06,15.99.98,23.56,2.69l.53.13.71.12c12.93,2.16,25.07,6.58,36.03,12.86,16.45,9.41,30.24,23.02,39.89,39.31,9.65,16.3,15.17,35.23,15.17,55.57,0,.25,0,.51,0,.76h0c-.07,10.59-1.64,20.79-4.51,30.42h35.65c2.15-9.74,3.33-19.85,3.39-30.19h0c0-.33,0-.66,0-.99,0-17.76-3.24-34.84-9.16-50.6-8.89-23.64-23.8-44.29-42.87-60.11-18.89-15.67-41.92-26.62-67.2-30.97-10-2.26-20.36-3.47-30.96-3.55-.33,0-.66,0-.99,0-11.94,0-23.58,1.46-34.72,4.21.17-2.46.29-4.94.32-7.43h0c0-.48,0-.96,0-1.43,0-16.71-3.29-32.8-9.27-47.52-8.97-22.09-23.95-41.13-42.98-55.06-19.02-13.93-42.19-22.75-67.29-24.18-2.49-.14-4.97-.21-7.43-.21-21.24,0-41.39,5.26-59.03,14.55-8.2,4.32-15.86,9.51-22.87,15.44-3.73-8.9-8.16-17.44-13.22-25.54-15.66-25.04-37.33-45.9-63.06-60.59C376.93,8.7,347.12.21,315.44,0c-.41,0-.82,0-1.23,0-24.47,0-47.88,4.94-69.16,13.9-31.94,13.44-59.11,35.86-78.4,64.13-9.64,14.14-17.31,29.75-22.6,46.44-5.29,16.68-8.2,34.44-8.32,52.81h0c0,.39,0,.8,0,1.22,0,10.02.83,19.86,2.42,29.45-14.86,1.4-29.1,5.04-42.33,10.61-25.86,10.88-47.85,29.03-63.46,51.92-7.81,11.45-14.02,24.09-18.3,37.6-4.28,13.51-6.64,27.89-6.73,42.75h0c0,.31,0,.64,0,.99,0,14.61,2.18,28.77,6.25,42.12,4.06,13.35,14.64,32.06,22.77,43.02l23.73-27.5c-5.72-8.68-10.37-15.44-13.46-25.58-3.09-10.13-4.75-20.88-4.75-32.05,0-.24,0-.49,0-.75h0c.1-15.18,3.25-29.52,8.85-42.59,8.4-19.59,22.37-36.28,39.89-48.04,8.76-5.88,18.39-10.53,28.67-13.71,10.27-3.18,21.18-4.89,32.54-4.89.25,0,.5,0,.76,0,2.13.01,4.12.08,6.08.2l24.83,1.62-7.17-23.83c-3.93-13.06-6.04-26.91-6.04-41.34,0-.32,0-.65,0-.99h0Z"/>
  <rect class="cls-1" x="881.98" y="490.46" width="21.76" height="21.76"/>
  <rect class="cls-1" x="892.86" y="428.35" width="30.49" height="30.49"/>
  <rect class="cls-1" x="931.24" y="475.73" width="23.85" height="23.85"/>
  <rect class="cls-1" x="983.06" y="504.11" width="40.27" height="40.27"/>
  <rect class="cls-1" x="948.57" y="408.08" width="26.1" height="26.1"/>
  <rect class="cls-1" x="993.64" y="361.85" width="42.36" height="42.36"/>
  <rect class="cls-1" x="910.3" y="347.31" width="38.9" height="38.9"/>
  <path d="M451.57,502.49c7.39-5.54,12.67-14.38,15.84-26.52h-19.79c-3.69,0-6.73,1.32-9.11,3.96-5.28,5.01-11.08,7.52-17.42,7.52-13.2,0-20.32-8.18-21.38-24.54h69.28c2.11-41.96-13.86-62.95-47.9-62.95-32.73.26-49.09,18.61-49.09,55.03s16.23,55.16,48.69,56.22c11.88,0,22.17-2.9,30.88-8.71ZM420.69,422.12c11.61,0,18.21,7.13,19.79,21.38h-40.38c2.11-14.25,8.97-21.38,20.59-21.38Z"/>
  <path d="M512.63,384.12c.26-8.71-4.09-13.06-13.06-13.06h-13.86v20.98h26.92v-7.92Z"/>
  <path d="M512.63,414.6c0-8.71-4.36-13.06-13.06-13.06h-13.86v107.29h26.92v-94.22Z"/>
  <path d="M623.97,474.77c0-7.39-2.51-13.72-7.52-19-5.81-5.54-17.82-10.16-36.03-13.86-13.99-2.64-20.98-6.73-20.98-12.27s5.28-8.31,15.84-8.31c8.97,0,14.38,2.38,16.23,7.13,1.58,4.22,5.54,6.47,11.88,6.73h17.02c-.53-11.08-4.75-19.79-12.67-26.13-8.18-6.07-19.13-9.11-32.86-9.11-13.46.26-23.89,3.3-31.28,9.11-7.65,6.33-11.48,14.78-11.48,25.34.26,16.89,12.27,27.45,36.03,31.67,18.47,3.17,27.71,7.52,27.71,13.06,0,6.86-5.67,10.29-17.02,10.29-7.39,0-12.8-1.32-16.23-3.96-3.69-2.38-5.67-6.33-5.94-11.88h-27.71c0,12.4,4.09,21.64,12.27,27.71,7.39,6.33,18.61,9.5,33.65,9.5,16.1,0,28.24-3.04,36.42-9.11,8.45-6.07,12.67-15.04,12.67-26.92Z"/>
  <path d="M669.59,420.93c3.7,0,6.86-1.25,9.5-3.76,2.64-2.51,3.96-5.74,3.96-9.7v-5.94h-16.23v-17.02c0-3.69-1.32-6.86-3.96-9.5-2.64-2.64-5.67-3.96-9.11-3.96h-13.86v117.18c-.26,11.88,4.68,18.28,14.85,19.2,10.16.92,19.6.99,28.31.2v-20.59h-8.31c-5.28,0-7.92-2.24-7.92-6.73v-59.38h2.77Z"/>
  <path d="M777.37,502.49c7.39-5.54,12.67-14.38,15.84-26.52h-19.79c-3.69,0-6.73,1.32-9.11,3.96-5.28,5.01-11.08,7.52-17.42,7.52-13.2,0-20.32-8.18-21.38-24.54h69.28c2.11-41.96-13.86-62.95-47.9-62.95-32.73.26-49.09,18.61-49.09,55.03s16.23,55.16,48.69,56.22c11.88,0,22.17-2.9,30.88-8.71ZM746.49,422.12c11.61,0,18.21,7.13,19.79,21.38h-40.38c2.11-14.25,8.97-21.38,20.59-21.38Z"/>
  <path d="M811.51,453.4v55.42h27.32v-55.82c0-15.57,7.52-23.36,22.57-23.36h9.11v-28.11h-3.96c-35.89,0-54.24,17.29-55.03,51.86Z"/>
  <path d="M304.99,590.95c-11.61-3.96-22.57-7.13-32.86-9.5-17.95-3.96-26.92-10.29-26.92-19,.53-10.56,8.05-15.97,22.57-16.23,11.88,0,20.19,3.96,24.94,11.88,2.64,5.28,6.86,7.92,12.67,7.92h15.84c-1.58-28.5-18.61-42.76-51.07-42.76-34.05-.26-51.33,14.12-51.86,43.15,0,18.21,13.46,30.75,40.38,37.61,10.03,2.64,19.14,5.15,27.32,7.52,8.45,2.38,12.67,6.86,12.67,13.46.26,11.35-8.58,17.02-26.52,17.02s-27.45-7.26-28.5-21.77h-27.32c.79,30.09,19.4,45.13,55.82,45.13s53.05-13.46,54.63-40.38c.79-17.42-6.47-28.77-21.77-34.05Z"/>
  <path d="M358.53,525.63h-13.86v20.98h26.92v-7.92c.26-8.71-4.09-13.06-13.06-13.06Z"/>
  <path d="M358.53,556.11h-13.86v107.29h26.92v-94.22c0-8.71-4.36-13.06-13.06-13.06Z"/>
  <path d="M439.39,555.72c-33.26.53-49.88,18.61-49.88,54.24s14.25,55.42,42.76,55.42c13.46,0,23.62-5.28,30.48-15.84v11.08c0,16.63-7.13,24.94-21.38,24.94-11.08,0-17.55-3.83-19.4-11.48h-29.69c6.33,22.7,21.64,34.05,45.92,34.05,34.31-.53,51.47-14.25,51.47-41.17v-63.34c0-32.2-16.76-48.17-50.28-47.9ZM462.75,610.74c-.79,20.59-8.45,30.88-22.96,30.88s-22.04-10.29-22.57-30.88c0-21.64,7.65-32.46,22.96-32.46s22.83,10.82,22.57,32.46Z"/>
  <path d="M552.31,554.53c-30.61,0-45.92,15.31-45.92,45.92v62.95h27.32v-68.49c.26-11.08,6.33-16.63,18.21-16.63s18.08,5.54,18.61,16.63v55.03c0,8.45,4.49,12.93,13.46,13.46h13.86v-62.95c.26-30.61-14.91-45.92-45.53-45.92Z"/>
  <path d="M656.92,554.53c-24.81,0-38.8,9.9-41.96,29.69h26.92c1.32-5.01,6.73-7.52,16.23-7.52,11.08,0,16.89,3.04,17.42,9.11,0,5.81-5.81,9.37-17.42,10.69-16.36,1.58-28.11,5.15-35.23,10.69-7.13,5.54-10.82,13.72-11.08,24.54,0,13.99,5.54,23.75,16.63,29.3,7.39,3.69,16.36,5.15,26.92,4.35,10.82-.79,19.79-3.04,26.92-6.73,13.2-7.13,19.79-19.79,19.79-38.01v-36.42c-.53-19.79-15.57-29.69-45.13-29.69ZM675.92,619.45c0,7.65-2.11,13.59-6.33,17.82-4.49,4.22-10.43,6.33-17.82,6.33-8.45,0-12.93-4.22-13.46-12.67,0-7.92,5.41-12.93,16.23-15.04,7.92-1.58,15.04-3.7,21.38-6.33v9.9Z"/>
  <path d="M767.47,555.72c-33.26.53-49.88,18.61-49.88,54.24s14.25,55.42,42.76,55.42c13.46,0,23.62-5.28,30.48-15.84v11.08c0,16.63-7.13,24.94-21.38,24.94-11.08,0-17.55-3.83-19.4-11.48h-29.69c6.33,22.7,21.64,34.05,45.92,34.05,34.31-.53,51.47-14.25,51.47-41.17v-63.34c0-32.2-16.76-48.17-50.28-47.9ZM790.83,610.74c-.79,20.59-8.45,30.88-22.96,30.88s-22.04-10.29-22.57-30.88c0-21.64,7.65-32.46,22.96-32.46s22.83,10.82,22.57,32.46Z"/>
  <path d="M882.77,554.53c-32.73.26-49.09,18.61-49.09,55.03s16.23,55.16,48.69,56.22c11.88,0,22.17-2.9,30.88-8.71,7.39-5.54,12.67-14.38,15.84-26.52h-19.79c-3.69,0-6.73,1.32-9.11,3.96-5.28,5.01-11.08,7.52-17.42,7.52-13.2,0-20.32-8.18-21.38-24.54h69.28c2.11-41.96-13.86-62.95-47.9-62.95ZM861.79,598.08c2.11-14.25,8.97-21.38,20.59-21.38s18.21,7.13,19.79,21.38h-40.38Z"/>
  <path class="cls-1" d="M213.87,361.95c12.2-14.09,10.66-35.4-3.43-47.61-14.12-12.19-35.43-10.66-47.64,3.44L0,506.53h89.14l124.72-144.57Z"/>
  <path class="cls-1" d="M335.06,311.87c-14.11-12.2-35.43-10.66-47.63,3.43l-165.56,191.22h89.33l127.3-147.05c12.19-14.1,10.66-35.41-3.44-47.61Z"/>
  <polygon class="cls-1" points="348.6 374.49 286.12 444.32 289.64 506.53 355.66 506.53 348.6 374.49"/>
</svg>