<svg xmlns="http://www.w3.org/2000/svg" viewBox="60 0 920 520" fill="none">
  <rect width="1036" height="520" fill="#0a1628"/>
  <path d="M170.28,177.51c.14-19.84,4.25-38.63,11.59-55.73,11-25.65,29.28-47.49,52.21-62.88,11.46-7.7,24.08-13.78,37.53-17.95,13.45-4.16,27.74-6.41,42.6-6.41.33,0,.66,0,.99,0,17.11.12,33.42,3.19,48.56,8.73,22.7,8.31,42.74,22.19,58.45,39.98,15.71,17.8,27.06,39.46,32.46,63.37l8.49,37.61,22.41-31.38c8.39-11.76,19.48-21.47,32.31-28.22,12.84-6.75,27.39-10.57,42.94-10.57,1.8,0,3.62.05,5.46.16,12.18.7,23.65,3.76,34.08,8.73,15.64,7.45,28.9,19.24,38.22,33.72,9.32,14.49,14.68,31.57,14.68,49.82,0,.35,0,.7,0,1.05h0c-.12,10.22-1.85,19.93-4.97,28.99l-13.94,40.41,38.1-19.39c14.93-7.59,31.8-11.87,49.75-11.88.25,0,.5,0,.76,0,8.13.06,15.99.98,23.56,2.69l.53.13.71.12c12.93,2.16,25.07,6.58,36.03,12.86,16.45,9.41,30.24,23.02,39.89,39.31,9.65,16.3,15.17,35.23,15.17,55.57,0,.25,0,.51,0,.76h0c-.07,10.59-1.64,20.79-4.51,30.42h35.65c2.15-9.74,3.33-19.85,3.39-30.19h0c0-.33,0-.66,0-.99,0-17.76-3.24-34.84-9.16-50.6-8.89-23.64-23.8-44.29-42.87-60.11-18.89-15.67-41.92-26.62-67.2-30.97-10-2.26-20.36-3.47-30.96-3.55-.33,0-.66,0-.99,0-11.94,0-23.58,1.46-34.72,4.21.17-2.46.29-4.94.32-7.43h0c0-.48,0-.96,0-1.43,0-16.71-3.29-32.8-9.27-47.52-8.97-22.09-23.95-41.13-42.98-55.06-19.02-13.93-42.19-22.75-67.29-24.18-2.49-.14-4.97-.21-7.43-.21-21.24,0-41.39,5.26-59.03,14.55-8.2,4.32-15.86,9.51-22.87,15.44-3.73-8.9-8.16-17.44-13.22-25.54-15.66-25.04-37.33-45.9-63.06-60.59C376.93,8.7,347.12.21,315.44,0c-.41,0-.82,0-1.23,0-24.47,0-47.88,4.94-69.16,13.9-31.94,13.44-59.11,35.86-78.4,64.13-9.64,14.14-17.31,29.75-22.6,46.44-5.29,16.68-8.2,34.44-8.32,52.81h0c0,.39,0,.8,0,1.22,0,10.02.83,19.86,2.42,29.45-14.86,1.4-29.1,5.04-42.33,10.61-25.86,10.88-47.85,29.03-63.46,51.92-7.81,11.45-14.02,24.09-18.3,37.6-4.28,13.51-6.64,27.89-6.73,42.75h0c0,.31,0,.64,0,.99,0,14.61,2.18,28.77,6.25,42.12,4.06,13.35,14.64,32.06,22.77,43.02l23.73-27.5c-5.72-8.68-10.37-15.44-13.46-25.58-3.09-10.13-4.75-20.88-4.75-32.05,0-.24,0-.49,0-.75h0c.1-15.18,3.25-29.52,8.85-42.59,8.4-19.59,22.37-36.28,39.89-48.04,8.76-5.88,18.39-10.53,28.67-13.71,10.27-3.18,21.18-4.89,32.54-4.89.25,0,.5,0,.76,0,2.13.01,4.12.08,6.08.2l24.83,1.62-7.17-23.83c-3.93-13.06-6.04-26.91-6.04-41.34,0-.32,0-.65,0-.99h0Z" fill="#fe019a"/>
</svg>
